<?xml version="1.0" encoding="UTF-8" standalone="no"?>
<!-- Created with Inkscape (http://www.inkscape.org/) -->

<svg
   width="251.35416mm"
   height="148.54288mm"
   viewBox="0 0 251.35416 148.54288"
   version="1.1"
   id="svg1"
   xml:space="preserve"
   inkscape:version="1.3 (0e150ed6c4, 2023-07-21)"
   sodipodi:docname="Intel 1969.svg"
   xmlns:inkscape="http://www.inkscape.org/namespaces/inkscape"
   xmlns:sodipodi="http://sodipodi.sourceforge.net/DTD/sodipodi-0.dtd"
   xmlns="http://www.w3.org/2000/svg"
   xmlns:svg="http://www.w3.org/2000/svg"><sodipodi:namedview
     id="namedview1"
     pagecolor="#ffffff"
     bordercolor="#000000"
     borderopacity="0.25"
     inkscape:showpageshadow="2"
     inkscape:pageopacity="0.0"
     inkscape:pagecheckerboard="0"
     inkscape:deskcolor="#d1d1d1"
     inkscape:document-units="mm"
     inkscape:zoom="0.72426347"
     inkscape:cx="445.97031"
     inkscape:cy="267.16797"
     inkscape:window-width="1920"
     inkscape:window-height="1009"
     inkscape:window-x="-8"
     inkscape:window-y="-8"
     inkscape:window-maximized="1"
     inkscape:current-layer="layer1" /><defs
     id="defs1" /><g
     inkscape:label="Layer 1"
     inkscape:groupmode="layer"
     id="layer1"
     transform="translate(-57.694237,-80.931617)"><path
       id="path23"
       style="font-weight:bold;font-size:10.8488px;line-height:0.8;font-family:'Nimbus Sans Becker D';-inkscape-font-specification:'Nimbus Sans Becker D Bold';letter-spacing:-0.317836px;word-spacing:0px;opacity:1;fill:#3f8ef8;fill-opacity:1;stroke-width:1.1071;stroke-linejoin:round"
       d="M 57.694237,80.931617 V 99.48351 H 77.95126 V 80.931617 Z m 251.354163,0 -20.43226,0.0037 -0.16798,104.572523 c -1.71976,-14.88613 -5.35849,-25.50107 -17.55516,-35.73959 -6.62572,-5.14797 -14.56997,-7.72237 -23.83518,-7.72237 -10.39632,0 -19.04702,3.20726 -25.94203,9.62829 -7.19699,6.71898 -11.45263,15.49563 -12.78655,26.32895 h -8.85787 c -3.41732,0 -5.8856,-0.97977 -7.40471,-2.93191 -1.08443,-1.35631 -1.62845,-4.55798 -1.62845,-9.60275 v -40.90829 h 15.29502 V 111.44493 H 190.43821 V 84.51343 H 170.1739 v 26.9315 h -11.39187 v 13.11523 h 11.39187 v 40.90829 c 0,6.56356 0.27556,11.15053 0.81784,13.75419 1.08442,5.74996 4.28681,9.76339 9.60272,12.04176 2.27822,0.86787 6.20992,1.30352 11.79715,1.30352 h 15.88282 c 1.21648,9.96527 5.17168,18.39404 11.87381,25.28106 7.54142,7.74937 17.05314,11.62552 28.52705,11.62552 29.36141,0 36.4755,-21.97353 38.05311,-27.23087 h -20.92153 c -3.66316,7.19612 -9.45798,10.87171 -17.37619,10.79306 -5.40855,-0.0565 -9.64245,-2.31086 -12.75377,-5.56081 -4.00978,-4.18845 -5.93195,-9.21681 -6.5576,-14.90796 h 79.92903 z M 131.31028,107.88495 c -14.65467,0 -24.00318,12.01258 -24.00318,12.01258 v -8.4526 H 87.046472 v 81.12299 H 107.3071 v -45.24239 c 0,-7.10605 1.16043,-12.1579 5.29062,-16.28809 3.12004,-3.12004 7.18793,-4.55679 11.96142,-4.55679 12.30063,0 13.96232,11.89192 13.96232,18.63591 v 47.45136 h 20.26063 v -52.66165 c 0,-5.07335 0.23739,-18.36805 -9.92768,-26.08074 -5.2117,-3.95431 -10.92617,-5.94058 -17.54413,-5.94058 z m -73.616043,3.55998 v 81.12299 H 77.95126 v -81.12299 z m 190.093873,47.6266 c 11.33853,0 17.12973,7.47669 18.36566,17.84356 h -37.0344 c 1.17352,-8.53978 6.5896,-17.84356 18.66874,-17.84356 z"
       sodipodi:nodetypes="cccccccccsccscsccccccccccsccscsscccscccscccccssssccssscccccsccs" /></g></svg>
